<svg height="480pt" viewBox="-13 0 480 480" width="480pt" xmlns="http://www.w3.org/2000/svg" xmlns:xlink="http://www.w3.org/1999/xlink"><linearGradient id="lg1"><stop offset="0" stop-color="#006df0"/><stop offset="1" stop-color="#00e7f0"/></linearGradient><linearGradient id="linear0" gradientUnits="userSpaceOnUse" x1="134.56" x2="137.304" xlink:href="#lg1" y1="494.112" y2="10.656"/><linearGradient id="linear1" gradientUnits="userSpaceOnUse" x1="289.632" x2="292.384" xlink:href="#lg1" y1="494.992" y2="11.536"/><linearGradient id="linear2" gradientUnits="userSpaceOnUse" x1="135.416" x2="138.168" xlink:href="#lg1" y1="494.12" y2="10.664"/><linearGradient id="linear3" gradientUnits="userSpaceOnUse" x1="135.648" x2="138.392" xlink:href="#lg1" y1="494.12" y2="10.664"/><linearGradient id="linear4" gradientUnits="userSpaceOnUse" x1="357.824" x2="360.568" xlink:href="#lg1" y1="495.384" y2="11.928"/><path d="m256 440c0 13.253906-10.746094 24-24 24h-192c-13.253906 0-24-10.746094-24-24v-400c0-13.253906 10.746094-24 24-24h16v8c0 13.253906 10.746094 24 24 24h112c13.253906 0 24-10.746094 24-24v-8h16c13.253906 0 24 10.746094 24 24v128h16v-128c-.027344-22.082031-17.917969-39.9726562-40-40h-192c-22.082031.0273438-39.9726562 17.917969-40 40v400c.0273438 22.082031 17.917969 39.972656 40 40h192c22.082031-.027344 39.972656-17.917969 40-40v-128h-16zm-56-424v8c0 4.417969-3.582031 8-8 8h-112c-4.417969 0-8-3.582031-8-8v-8zm0 0" fill="url(#linear0)"/><path d="m451.664062 190.183594c-3.164062-5.535156-8.40625-9.582032-14.566406-11.234375-6.160156-1.652344-12.722656-.777344-18.234375 2.433593l-52.597656 30.402344c-3.203125-5.378906-8.363281-9.304687-14.402344-10.953125l-59.808593-16c-2.023438-.539062-4.109376-.804687-6.207032-.800781h-33.847656c-3.699219.003906-7.347656.855469-10.664062 2.496094l-17.335938 8.578125v-19.105469h-80v-24h-16v176h16v-24h80v-24.199219l15.710938 11.542969c4.113281 3.035156 9.097656 4.667969 14.210937 4.65625h61.597656c4.398438.007812 8.71875-1.191406 12.480469-3.472656l114.929688-69.597656c7.421874-4.320313 11.992187-12.261719 12-20.851563-.027344-4.179687-1.152344-8.285156-3.265626-11.894531zm-243.664062 97.816406h-64v-96h64zm226.742188-78.839844-115.0625 69.679688c-1.25.757812-2.6875 1.160156-4.152344 1.160156h-61.597656c-1.707032 0-3.371094-.542969-4.746094-1.550781l-25.183594-18.496094v-46.992187l24.472656-12.160157c1.097656-.535156 2.304688-.808593 3.527344-.800781h33.886719c.699219 0 1.390625.089844 2.066406.273438l59.773437 16c3.382813.910156 5.785157 3.902343 5.945313 7.398437.003906.839844-.101563 1.675781-.3125 2.488281-.535156 2.0625-1.886719 3.816406-3.746094 4.859375s-4.0625 1.285157-6.101562.667969l-53.441407-14.304688-4.160156 15.457032 53.464844 14.304687c6.152344 1.679688 12.71875.839844 18.25-2.339843 5.527344-3.175782 9.5625-8.425782 11.207031-14.589844.152344-.542969.28125-1.09375.382813-1.664063l57.730468-33.351562c1.796876-1.058594 3.945313-1.347657 5.957032-.800781 3.484375.941406 5.921875 4.074218 5.976562 7.679687-.007812 2.933594-1.585937 5.632813-4.136718 7.082031zm0 0" fill="url(#linear1)"/><path d="m32 384h208v16h-208zm0 0" fill="url(#linear2)"/><path d="m112 432c0 13.253906 10.746094 24 24 24s24-10.746094 24-24-10.746094-24-24-24-24 10.746094-24 24zm32 0c0 4.417969-3.582031 8-8 8s-8-3.582031-8-8 3.582031-8 8-8 8 3.582031 8 8zm0 0" fill="url(#linear3)"/><g fill="url(#linear4)"><path d="m360 40c-39.765625 0-72 32.234375-72 72s32.234375 72 72 72 72-32.234375 72-72c-.042969-39.746094-32.253906-71.957031-72-72zm0 128c-30.929688 0-56-25.070312-56-56s25.070312-56 56-56 56 25.070312 56 56c-.035156 30.914062-25.085938 55.964844-56 56zm0 0"/><path d="m360 88c4.417969 0 8 3.582031 8 8h16c-.042969-10.132812-6.445312-19.148438-16-22.527344v-9.472656h-16v9.472656c-11.011719 3.878906-17.621094 15.132813-15.644531 26.640625 1.980469 11.507813 11.96875 19.910157 23.644531 19.886719 4.417969 0 8 3.582031 8 8s-3.582031 8-8 8-8-3.582031-8-8h-16c.042969 10.132812 6.445312 19.148438 16 22.527344v9.472656h16v-9.472656c11.011719-3.878906 17.621094-15.132813 15.644531-26.640625-1.980469-11.507813-11.96875-19.910157-23.644531-19.886719-4.417969 0-8-3.582031-8-8s3.582031-8 8-8zm0 0"/></g></svg>