<?xml version="1.0"?>
<svg xmlns="http://www.w3.org/2000/svg" xmlns:xlink="http://www.w3.org/1999/xlink" viewBox="0 0 64 64" width="512" height="512"><defs><linearGradient id="New_Gradient_Swatch_3" x1="32" y1="58.26" x2="32" y2="10.905" gradientUnits="userSpaceOnUse"><stop offset="0" stop-color="#006df0"/><stop offset="1" stop-color="#00e7f0"/></linearGradient><linearGradient id="New_Gradient_Swatch_3-2" x1="8" y1="58.26" x2="8" y2="10.905" xlink:href="#New_Gradient_Swatch_3"/><linearGradient id="New_Gradient_Swatch_3-3" x1="43" y1="58.26" x2="43" y2="10.905" xlink:href="#New_Gradient_Swatch_3"/><linearGradient id="New_Gradient_Swatch_3-4" x1="51" y1="58.26" x2="51" y2="10.905" xlink:href="#New_Gradient_Swatch_3"/><linearGradient id="New_Gradient_Swatch_3-5" x1="35" y1="58.26" x2="35" y2="10.905" xlink:href="#New_Gradient_Swatch_3"/></defs><g id="Money-6" data-name="Money"><path d="M60,24H41.244L37.3,20.053A6.965,6.965,0,0,0,32.341,18H17.472a3.022,3.022,0,0,0-1.342.316l-1.139.571a.953.953,0,0,1-.444.106L14,18.973V17a1,1,0,0,0-1-1H3a1,1,0,0,0-1,1V37a1,1,0,0,0,1,1H13a1,1,0,0,0,1-1V35h.7l.605.4A10.869,10.869,0,0,0,24,36.928V46a2,2,0,0,0,2,2H60a2,2,0,0,0,2-2V26A2,2,0,0,0,60,24ZM12,36H4V18h8Zm4.412-2.264-.86-.569A1,1,0,0,0,15,33H14V20.974l.495.018a3.008,3.008,0,0,0,1.39-.316l1.139-.571A1.027,1.027,0,0,1,17.472,20H32.341a4.976,4.976,0,0,1,3.542,1.467L38.416,24H32.074l-1.726-1.727a1,1,0,1,0-1.414,1.415l6.259,6.26a1.013,1.013,0,0,1-.053,1.464,1.092,1.092,0,0,1-1.454-.141l-4.979-4.978a1,1,0,0,0-1.414,0,5.317,5.317,0,0,1-7.085.393l-.583-.467a1,1,0,0,0-1.25,1.562l.583.466A7.283,7.283,0,0,0,24,29.815v5.036A8.97,8.97,0,0,1,16.412,33.736ZM29,31.875a3.9,3.9,0,0,0,1.612-.849l1.659,1.66a3.2,3.2,0,0,0,2.257.943,2.919,2.919,0,0,0,1.924-.707A3.018,3.018,0,0,0,36.987,29H54.126A4.016,4.016,0,0,0,57,31.874v8.252A4.016,4.016,0,0,0,54.126,43H31.874A4.016,4.016,0,0,0,29,40.126ZM60,46H26V29.41a7.25,7.25,0,0,0,1.952-1.044L29.184,29.6A1.973,1.973,0,0,1,28,30a1,1,0,0,0-1,1V41a1,1,0,0,0,1,1,2,2,0,0,1,2,2,1,1,0,0,0,1,1H55a1,1,0,0,0,1-1,2,2,0,0,1,2-2,1,1,0,0,0,1-1V31a1,1,0,0,0-1-1,2,2,0,0,1-2-2,1,1,0,0,0-1-1H35.074l-1-1H60Z" style="fill:url(#New_Gradient_Swatch_3)"/><path d="M8,31a1,1,0,0,0-1,1v1a1,1,0,0,0,2,0V32A1,1,0,0,0,8,31Z" style="fill:url(#New_Gradient_Swatch_3-2)"/><path d="M42,30v1.1c-1.741.327-3,1.477-3,2.9,0,1.682,1.757,3,4,3,1.221,0,2,.592,2,1s-.779,1-2,1-2-.592-2-1a1,1,0,0,0-2,0c0,1.421,1.259,2.571,3,2.9V42a1,1,0,0,0,2,0V40.9c1.741-.327,3-1.477,3-2.9,0-1.682-1.757-3-4-3-1.221,0-2-.592-2-1s.779-1,2-1,2,.592,2,1a1,1,0,0,0,2,0c0-1.421-1.259-2.571-3-2.9V30a1,1,0,0,0-2,0Z" style="fill:url(#New_Gradient_Swatch_3-3)"/><path d="M50,37h2a1,1,0,0,0,0-2H50a1,1,0,0,0,0,2Z" style="fill:url(#New_Gradient_Swatch_3-4)"/><path d="M34,37h2a1,1,0,0,0,0-2H34a1,1,0,0,0,0,2Z" style="fill:url(#New_Gradient_Swatch_3-5)"/></g></svg>
