<svg height="480pt" viewBox="0 -24 480 480" width="480pt" xmlns="http://www.w3.org/2000/svg" xmlns:xlink="http://www.w3.org/1999/xlink"><linearGradient id="lg1"><stop offset="0" stop-color="#006df0"/><stop offset="1" stop-color="#00e7f0"/></linearGradient><linearGradient id="linear0" gradientUnits="userSpaceOnUse" x1="240" x2="240" xlink:href="#lg1" y1="561.04" y2="-68.44"/><linearGradient id="linear2" gradientUnits="userSpaceOnUse" x1="104" x2="104" xlink:href="#lg1" y1="561.04" y2="-68.44"/><linearGradient id="linear3" gradientUnits="userSpaceOnUse" x1="376" x2="376" xlink:href="#lg1" y1="561.04" y2="-68.44"/><linearGradient id="linear4" gradientUnits="userSpaceOnUse" x1="77.752" x2="77.752" xlink:href="#lg1" y1="561.04" y2="-68.44"/><linearGradient id="linear5" gradientUnits="userSpaceOnUse" x1="402.248" x2="402.248" xlink:href="#lg1" y1="561.04" y2="-68.44"/><linearGradient id="linear8" gradientUnits="userSpaceOnUse" x1="160" x2="160" xlink:href="#lg1" y1="561.04" y2="-68.44"/><linearGradient id="linear9" gradientUnits="userSpaceOnUse" x1="48" x2="48" xlink:href="#lg1" y1="561.04" y2="-68.44"/><linearGradient id="linear10" gradientUnits="userSpaceOnUse" x1="320" x2="320" xlink:href="#lg1" y1="561.04" y2="-68.44"/><linearGradient id="linear11" gradientUnits="userSpaceOnUse" x1="432" x2="432" xlink:href="#lg1" y1="561.04" y2="-68.44"/><path d="m328 216c0-48.601562-39.398438-88-88-88s-88 39.398438-88 88 39.398438 88 88 88c48.578125-.058594 87.941406-39.421875 88-88zm-88 72c-39.765625 0-72-32.234375-72-72s32.234375-72 72-72 72 32.234375 72 72c-.042969 39.746094-32.253906 71.957031-72 72zm0 0" fill="url(#linear0)"/><path d="m240 192c4.417969 0 8 3.582031 8 8h16c-.042969-10.132812-6.445312-19.148438-16-22.527344v-9.472656h-16v9.472656c-11.011719 3.878906-17.621094 15.132813-15.644531 26.640625 1.980469 11.507813 11.96875 19.910157 23.644531 19.886719 4.417969 0 8 3.582031 8 8s-3.582031 8-8 8-8-3.582031-8-8h-16c.042969 10.132812 6.445312 19.148438 16 22.527344v9.472656h16v-9.472656c11.011719-3.878906 17.621094-15.132813 15.644531-26.640625-1.980469-11.507813-11.96875-19.910157-23.644531-19.886719-4.417969 0-8-3.582031-8-8s3.582031-8 8-8zm0 0" fill="url(#linear0)"/><path d="m192 328c0 13.253906-10.746094 24-24 24h-128c-13.253906 0-24-10.746094-24-24v-288c0-13.253906 10.746094-24 24-24h16c0 13.253906 10.746094 24 24 24h48c13.253906 0 24-10.746094 24-24h16c13.253906 0 24 10.746094 24 24v80h16v-80c-.027344-22.082031-17.917969-39.9726562-40-40h-128c-22.082031.0273438-39.9726562 17.917969-40 40v288c.0273438 22.082031 17.917969 39.972656 40 40h128c22.082031-.027344 39.972656-17.917969 40-40v-16h-16zm-56-312c0 4.417969-3.582031 8-8 8h-48c-4.417969 0-8-3.582031-8-8zm0 0" fill="url(#linear2)"/><path d="m440 64h-128c-22.082031.027344-39.972656 17.917969-40 40v16h16v-16c0-13.253906 10.746094-24 24-24h16c0 13.253906 10.746094 24 24 24h48c13.253906 0 24-10.746094 24-24h16c13.253906 0 24 10.746094 24 24v288c0 13.253906-10.746094 24-24 24h-128c-13.253906 0-24-10.746094-24-24v-88h-16v88c.027344 22.082031 17.917969 39.972656 40 40h128c22.082031-.027344 39.972656-17.917969 40-40v-288c-.027344-22.082031-17.917969-39.972656-40-40zm-40 24h-48c-4.417969 0-8-3.582031-8-8h64c0 4.417969-3.582031 8-8 8zm0 0" fill="url(#linear3)"/><path d="m136 208v-16h-48v-33.078125l-68.503906 57.078125 68.503906 57.078125v-33.078125h48v-16h-64v14.921875l-27.503906-22.921875 27.503906-22.921875v14.921875zm0 0" fill="url(#linear4)"/><path d="m344 224v16h48v33.078125l68.496094-57.078125-68.496094-57.078125v33.078125h-48v16h64v-14.921875l27.496094 22.921875-27.496094 22.921875v-14.921875zm0 0" fill="url(#linear5)"/><path d="m80 320c0 13.253906 10.746094 24 24 24s24-10.746094 24-24-10.746094-24-24-24-24 10.746094-24 24zm32 0c0 4.417969-3.582031 8-8 8s-8-3.582031-8-8 3.582031-8 8-8 8 3.582031 8 8zm0 0" fill="url(#linear2)"/><path d="m352 384c0 13.253906 10.746094 24 24 24s24-10.746094 24-24-10.746094-24-24-24-24 10.746094-24 24zm32 0c0 4.417969-3.582031 8-8 8s-8-3.582031-8-8 3.582031-8 8-8 8 3.582031 8 8zm0 0" fill="url(#linear3)"/><path d="m144 312h32v16h-32zm0 0" fill="url(#linear8)"/><path d="m32 312h32v16h-32zm0 0" fill="url(#linear9)"/><path d="m304 376h32v16h-32zm0 0" fill="url(#linear10)"/><path d="m416 376h32v16h-32zm0 0" fill="url(#linear11)"/></svg>